
<svg xmlns="http://www.w3.org/2000/svg" viewBox="0 0 500 500">
  <circle cx="250" cy="250" r="250" fill="#fff"/>
  <circle cx="250" cy="250" r="230" fill="#25D366"/>
  <path d="M250 130c-66.3 0-120 53.7-120 120 0 23.6 6.9 45.6 18.7 64.2l-19.4 57.1 58.6-18.7c17.8 9.8 38.1 15.4 59.7 15.4 66.3 0 120-53.7 120-120s-53.4-118-117.6-118zm0 220c-20.4 0-39.4-6.1-55.4-16.5l-38.8 12.4 12.6-37.6c-11.8-16.5-18.7-36.6-18.7-58.3 0-55.4 44.9-100.3 100.3-100.3s100.3 44.9 100.3 100.3-44.9 100-100.3 100z" fill="#fff"/>
  <path d="M307.5 275.5l-35-35c-1.9-1.9-5-1.9-6.9 0l-10.8 10.8c-1.9 1.9-5 1.9-6.9 0l-19.6-19.6c-1.9-1.9-1.9-5 0-6.9l10.8-10.8c1.9-1.9 1.9-5 0-6.9l-35-35c-1.9-1.9-5-1.9-6.9 0l-10.4 10.4c-17.3 17.3-17.3 45.5 0 62.8l71.5 71.5c17.3 17.3 45.5 17.3 62.8 0l10.4-10.4c1.9-1.9 1.9-5 0-6.9z" fill="#fff"/>
  <text x="250" y="390" text-anchor="middle" font-family="Arial" font-weight="bold" font-size="34" fill="#25D366">ESNAFPANEL</text>
  <text x="250" y="430" text-anchor="middle" font-family="Arial" font-style="italic" font-size="24" fill="#25D366">Since 2025</text>
</svg>
